<svg xmlns="http://www.w3.org/2000/svg" height="282px" width="461px" version="1.1"><polyline points="132.0,2.0,145.0,10.0,166.0,18.0,169.0,26.0,166.0,34.0,164.0,42.0" stroke="black" stroke-width="1" fill="none" />
<polyline points="169.0,33.0,174.0,25.0,169.0,33.0" stroke="black" stroke-width="1" fill="none" />
<polyline points="180.0,30.0,183.0,22.0" stroke="black" stroke-width="1" fill="none" />
<polyline points="208.0,18.0,200.0,16.0,192.0,15.0,184.0,17.0,176.0,19.0,168.0,18.0,160.0,17.0,152.0,14.0,144.0,9.0,136.0,4.0,128.0,1.0" stroke="black" stroke-width="1" fill="none" />
<polyline points="149.0,56.0,155.0,64.0,151.0,66.0,153.0,73.0,156.0,73.0" stroke="black" stroke-width="1" fill="none" />
<polyline points="157.0,59.0,149.0,56.0" stroke="black" stroke-width="1" fill="none" />
<polyline points="153.0,68.0,153.0,64.0,145.0,63.0,137.0,67.0,129.0,67.0" stroke="black" stroke-width="1" fill="none" />
<polyline points="131.0,68.0,139.0,74.0" stroke="black" stroke-width="1" fill="none" />
<polyline points="141.0,75.0,141.0,70.0,134.0,67.0" stroke="black" stroke-width="1" fill="none" />
<polyline points="131.0,65.0,137.0,73.0,144.0,81.0,150.0,88.0,150.0,84.0" stroke="black" stroke-width="1" fill="none" />
<polyline points="136.0,85.0,128.0,81.0,120.0,78.0" stroke="black" stroke-width="1" fill="none" />
<polyline points="119.0,75.0,127.0,78.0,135.0,80.0,143.0,84.0" stroke="black" stroke-width="1" fill="none" />
<polyline points="123.0,94.0,115.0,90.0" stroke="black" stroke-width="1" fill="none" />
<polyline points="122.0,101.0,114.0,95.0,111.0,103.0,108.0,104.0,100.0,113.0,92.0,122.0,84.0,128.0,87.0,126.0,94.0,118.0,101.0,110.0,109.0,102.0" stroke="black" stroke-width="1" fill="none" />
<polyline points="106.0,111.0,114.0,109.0,118.0,116.0" stroke="black" stroke-width="1" fill="none" />
<polyline points="125.0,112.0,122.0,111.0,112.0,110.0,122.0,102.0,116.0,91.0,104.0,84.0,96.0,84.0,88.0,84.0" stroke="black" stroke-width="1" fill="none" />
<polyline points="101.0,94.0,94.0,102.0,88.0,109.0,96.0,100.0,101.0,99.0,106.0,91.0,115.0,87.0,123.0,90.0" stroke="black" stroke-width="1" fill="none" />
<polyline points="92.0,55.0,84.0,47.0,76.0,43.0" stroke="black" stroke-width="1" fill="none" />
<polyline points="69.0,46.0,71.0,41.0,67.0,43.0,81.0,46.0,90.0,54.0,97.0,62.0,100.0,70.0,104.0,87.0,96.0,95.0,89.0,103.0,86.0,107.0,94.0,96.0,102.0,89.0,108.0,81.0,116.0,82.0,124.0,83.0,132.0,86.0" stroke="black" stroke-width="1" fill="none" />
<polyline points="136.0,89.0,126.0,81.0,112.0,78.0,104.0,75.0,96.0,76.0,88.0,77.0,80.0,78.0,72.0,79.0" stroke="black" stroke-width="1" fill="none" />
<polyline points="71.0,77.0,79.0,75.0,87.0,74.0,95.0,72.0,97.0,67.0,103.0,71.0" stroke="black" stroke-width="1" fill="none" />
<polyline points="83.0,42.0,75.0,35.0,67.0,26.0,59.0,11.0" stroke="black" stroke-width="1" fill="none" />
<polyline points="55.0,1.0,56.0,4.0,59.0,12.0,63.0,20.0,68.0,28.0,75.0,36.0,85.0,44.0" stroke="black" stroke-width="1" fill="none" />
<polyline points="168.0,107.0,173.0,115.0,170.0,117.0" stroke="black" stroke-width="1" fill="none" />
<polyline points="176.0,115.0,168.0,107.0" stroke="black" stroke-width="1" fill="none" />
<polyline points="183.0,109.0,184.0,111.0,183.0,118.0,191.0,121.0" stroke="black" stroke-width="1" fill="none" />
<polyline points="191.0,122.0,191.0,115.0,195.0,113.0,195.0,105.0" stroke="black" stroke-width="1" fill="none" />
<polyline points="177.0,151.0,185.0,153.0,192.0,155.0" stroke="black" stroke-width="1" fill="none" />
<polyline points="181.0,171.0,170.0,163.0,169.0,155.0" stroke="black" stroke-width="1" fill="none" />
<polyline points="166.0,156.0,174.0,155.0,182.0,159.0,190.0,163.0,198.0,160.0,206.0,161.0,214.0,163.0,222.0,171.0" stroke="black" stroke-width="1" fill="none" />
<polyline points="220.0,171.0,226.0,179.0,233.0,197.0" stroke="black" stroke-width="1" fill="none" />
<polyline points="234.0,192.0,226.0,197.0,218.0,199.0" stroke="black" stroke-width="1" fill="none" />
<polyline points="216.0,188.0,216.0,189.0,214.0,197.0,204.0,210.0,209.0,211.0,208.0,214.0,212.0,210.0,220.0,206.0,228.0,205.0" stroke="black" stroke-width="1" fill="none" />
<polyline points="239.0,206.0,243.0,214.0,246.0,217.0,254.0,216.0,259.0,222.0,269.0,224.0,277.0,219.0,285.0,215.0,293.0,211.0" stroke="black" stroke-width="1" fill="none" />
<polyline points="289.0,214.0,294.0,206.0" stroke="black" stroke-width="1" fill="none" />
<polyline points="286.0,194.0,288.0,200.0,287.0,210.0,272.0,216.0,260.0,214.0,260.0,223.0,266.0,231.0,253.0,237.0,244.0,245.0,238.0,253.0,229.0,255.0,226.0,263.0,219.0,265.0,222.0,271.0,230.0,266.0,238.0,257.0,245.0,249.0,253.0,242.0,261.0,240.0,264.0,232.0,267.0,235.0,274.0,234.0,282.0,236.0,290.0,239.0,298.0,245.0,306.0,253.0,314.0,263.0" stroke="black" stroke-width="1" fill="none" />
<polyline points="311.0,259.0,303.0,251.0,296.0,243.0,288.0,239.0,272.0,239.0,273.0,229.0" stroke="black" stroke-width="1" fill="none" />
<polyline points="270.0,235.0,278.0,241.0,286.0,241.0,294.0,246.0,302.0,254.0" stroke="black" stroke-width="1" fill="none" />
<polyline points="303.0,256.0,295.0,248.0,281.0,240.0" stroke="black" stroke-width="1" fill="none" />
<polyline points="280.0,215.0,271.0,223.0,273.0,229.0,264.0,236.0,249.0,244.0,242.0,252.0,237.0,259.0,227.0,267.0,232.0,258.0,240.0,249.0,248.0,240.0,256.0,236.0" stroke="black" stroke-width="1" fill="none" />
<polyline points="253.0,250.0,246.0,256.0,244.0,259.0,252.0,251.0" stroke="black" stroke-width="1" fill="none" />
<polyline points="217.0,264.0,217.0,272.0" stroke="black" stroke-width="1" fill="none" />
<polyline points="214.0,269.0,212.0,261.0" stroke="black" stroke-width="1" fill="none" />
<polyline points="214.0,255.0,209.0,263.0,207.0,271.0" stroke="black" stroke-width="1" fill="none" />
<polyline points="203.0,274.0,200.0,270.0,203.0,273.0,195.0,273.0" stroke="black" stroke-width="1" fill="none" />
<polyline points="196.0,267.0,188.0,271.0" stroke="black" stroke-width="1" fill="none" />
<polyline points="206.0,272.0,190.0,273.0,187.0,265.0,190.0,260.0,200.0,252.0" stroke="black" stroke-width="1" fill="none" />
<polyline points="201.0,253.0,205.0,261.0,202.0,260.0,197.0,266.0,189.0,267.0,190.0,266.0,197.0,258.0,209.0,263.0,219.0,265.0" stroke="black" stroke-width="1" fill="none" />
<polyline points="196.0,245.0,188.0,247.0,180.0,252.0,172.0,256.0,164.0,260.0,160.0,262.0,176.0,254.0,193.0,250.0,185.0,253.0,177.0,256.0,169.0,261.0" stroke="black" stroke-width="1" fill="none" />
<polyline points="190.0,250.0,174.0,258.0,176.0,265.0,179.0,267.0,187.0,259.0,195.0,252.0" stroke="black" stroke-width="1" fill="none" />
<polyline points="204.0,216.0,196.0,209.0,188.0,200.0,180.0,195.0" stroke="black" stroke-width="1" fill="none" />
<polyline points="181.0,194.0,189.0,202.0,197.0,210.0" stroke="black" stroke-width="1" fill="none" />
<polyline points="211.0,206.0,203.0,212.0,195.0,204.0,187.0,194.0" stroke="black" stroke-width="1" fill="none" />
<polyline points="185.0,188.0,188.0,196.0,194.0,204.0" stroke="black" stroke-width="1" fill="none" />
<polyline points="191.0,188.0,183.0,189.0" stroke="black" stroke-width="1" fill="none" />
<polyline points="191.0,182.0,203.0,180.0,207.0,169.0,214.0,164.0,207.0,169.0,199.0,174.0,191.0,173.0,183.0,171.0,175.0,167.0,167.0,158.0" stroke="black" stroke-width="1" fill="none" />
<polyline points="160.0,162.0,164.0,171.0" stroke="black" stroke-width="1" fill="none" />
<polyline points="175.0,171.0,166.0,162.0,158.0,151.0" stroke="black" stroke-width="1" fill="none" />
<polyline points="158.0,151.0,164.0,159.0,170.0,167.0,180.0,173.0,172.0,177.0,175.0,181.0,183.0,179.0,184.0,176.0,195.0,180.0,203.0,180.0,211.0,169.0" stroke="black" stroke-width="1" fill="none" />
<polyline points="237.0,177.0,245.0,171.0,247.0,177.0,238.0,185.0,228.0,189.0,236.0,186.0,244.0,180.0" stroke="black" stroke-width="1" fill="none" />
<polyline points="246.0,188.0,246.0,196.0" stroke="black" stroke-width="1" fill="none" />
<polyline points="251.0,207.0,259.0,205.0" stroke="black" stroke-width="1" fill="none" />
<polyline points="239.0,206.0,247.0,211.0,255.0,211.0,265.0,213.0,274.0,214.0,282.0,210.0,290.0,206.0" stroke="black" stroke-width="1" fill="none" />
<polyline points="296.0,185.0,289.0,177.0,282.0,171.0,282.0,165.0" stroke="black" stroke-width="1" fill="none" />
<polyline points="280.0,163.0,283.0,172.0,290.0,180.0,298.0,188.0,303.0,196.0,306.0,205.0,314.0,205.0,322.0,209.0,334.0,213.0,338.0,217.0,346.0,216.0,354.0,213.0,362.0,211.0,370.0,208.0,378.0,204.0,386.0,200.0,394.0,195.0,402.0,191.0,410.0,185.0,417.0,178.0,408.0,186.0,396.0,194.0,381.0,202.0,363.0,210.0,356.0,220.0,364.0,226.0,372.0,225.0,380.0,225.0,388.0,224.0,396.0,223.0,404.0,223.0,412.0,225.0" stroke="black" stroke-width="1" fill="none" />
<polyline points="405.0,230.0,397.0,229.0,389.0,229.0,381.0,230.0,373.0,230.0" stroke="black" stroke-width="1" fill="none" />
<polyline points="370.0,232.0,378.0,232.0,386.0,232.0,394.0,232.0,402.0,232.0" stroke="black" stroke-width="1" fill="none" />
<polyline points="386.0,243.0,378.0,239.0" stroke="black" stroke-width="1" fill="none" />
<polyline points="377.0,237.0,385.0,245.0,394.0,245.0" stroke="black" stroke-width="1" fill="none" />
<polyline points="401.0,248.0,393.0,244.0,385.0,238.0,377.0,237.0" stroke="black" stroke-width="1" fill="none" />
<polyline points="359.0,247.0,367.0,250.0,375.0,253.0,383.0,256.0,391.0,259.0" stroke="black" stroke-width="1" fill="none" />
<polyline points="372.0,258.0,364.0,254.0,356.0,252.0" stroke="black" stroke-width="1" fill="none" />
<polyline points="356.0,246.0,364.0,246.0,372.0,248.0,380.0,249.0,388.0,252.0" stroke="black" stroke-width="1" fill="none" />
<polyline points="384.0,248.0,384.0,244.0,376.0,246.0,368.0,244.0,360.0,243.0,356.0,240.0,348.0,240.0" stroke="black" stroke-width="1" fill="none" />
<polyline points="342.0,242.0,350.0,244.0,358.0,247.0" stroke="black" stroke-width="1" fill="none" />
<polyline points="346.0,247.0,354.0,251.0,362.0,250.0,370.0,253.0" stroke="black" stroke-width="1" fill="none" />
<polyline points="364.0,262.0,358.0,254.0,344.0,249.0" stroke="black" stroke-width="1" fill="none" />
<polyline points="341.0,248.0,350.0,252.0,357.0,260.0,358.0,263.0,367.0,260.0" stroke="black" stroke-width="1" fill="none" />
<polyline points="350.0,265.0,342.0,259.0" stroke="black" stroke-width="1" fill="none" />
<polyline points="339.0,259.0,342.0,259.0,346.0,267.0,340.0,271.0,347.0,269.0" stroke="black" stroke-width="1" fill="none" />
<polyline points="350.0,268.0,348.0,260.0,339.0,259.0" stroke="black" stroke-width="1" fill="none" />
<polyline points="337.0,255.0,345.0,257.0,353.0,254.0,354.0,258.0,363.0,256.0,371.0,260.0" stroke="black" stroke-width="1" fill="none" />
<polyline points="377.0,254.0,360.0,252.0,350.0,244.0,339.0,246.0" stroke="black" stroke-width="1" fill="none" />
<polyline points="346.0,255.0,354.0,263.0" stroke="black" stroke-width="1" fill="none" />
<polyline points="370.0,254.0,356.0,246.0,361.0,239.0,353.0,236.0,345.0,234.0,337.0,232.0" stroke="black" stroke-width="1" fill="none" />
<polyline points="335.0,231.0,343.0,230.0,351.0,231.0,359.0,231.0,367.0,231.0,375.0,228.0,383.0,228.0,391.0,227.0,399.0,227.0,407.0,228.0,415.0,229.0" stroke="black" stroke-width="1" fill="none" />
<polyline points="418.0,208.0,410.0,207.0,407.0,205.0,398.0,208.0,390.0,211.0,382.0,214.0,374.0,216.0,366.0,218.0,363.0,224.0,355.0,224.0,347.0,222.0" stroke="black" stroke-width="1" fill="none" />
<polyline points="342.0,227.0,350.0,227.0,357.0,234.0,365.0,234.0,373.0,234.0,381.0,234.0,389.0,235.0,397.0,235.0" stroke="black" stroke-width="1" fill="none" />
<polyline points="385.0,213.0,403.0,205.0" stroke="black" stroke-width="1" fill="none" />
<polyline points="395.0,206.0,408.0,198.0" stroke="black" stroke-width="1" fill="none" />
<polyline points="413.0,188.0,405.0,191.0,403.0,202.0,395.0,206.0,387.0,210.0,379.0,213.0,371.0,215.0,363.0,217.0,355.0,218.0,347.0,219.0,346.0,224.0,338.0,226.0" stroke="black" stroke-width="1" fill="none" />
<polyline points="346.0,189.0,346.0,186.0,345.0,188.0" stroke="black" stroke-width="1" fill="none" />
<polyline points="372.0,185.0,362.0,193.0,354.0,200.0,346.0,206.0,333.0,207.0,325.0,203.0,316.0,201.0,308.0,191.0" stroke="black" stroke-width="1" fill="none" />
<polyline points="308.0,191.0,313.0,199.0" stroke="black" stroke-width="1" fill="none" />
<polyline points="328.0,218.0,335.0,212.0,348.0,202.0,358.0,194.0,364.0,186.0,368.0,178.0,373.0,175.0,363.0,180.0,358.0,183.0,358.0,188.0,352.0,177.0,359.0,169.0,364.0,162.0,356.0,166.0,346.0,167.0,360.0,159.0,365.0,151.0,359.0,160.0,351.0,165.0,343.0,168.0,335.0,169.0,327.0,169.0,319.0,163.0" stroke="black" stroke-width="1" fill="none" />
<polyline points="311.0,165.0,319.0,160.0,327.0,157.0,335.0,156.0,343.0,154.0,345.0,150.0,353.0,149.0,358.0,148.0" stroke="black" stroke-width="1" fill="none" />
<polyline points="346.0,144.0,338.0,148.0,330.0,143.0" stroke="black" stroke-width="1" fill="none" />
<polyline points="330.0,143.0,342.0,151.0,345.0,151.0" stroke="black" stroke-width="1" fill="none" />
<polyline points="328.0,156.0,312.0,164.0,309.0,172.0,314.0,177.0" stroke="black" stroke-width="1" fill="none" />
<polyline points="275.0,138.0,274.0,130.0,278.0,122.0,277.0,114.0,271.0,108.0" stroke="black" stroke-width="1" fill="none" />
<polyline points="271.0,114.0,270.0,122.0,266.0,130.0,271.0,140.0" stroke="black" stroke-width="1" fill="none" />
<polyline points="274.0,133.0,277.0,123.0" stroke="black" stroke-width="1" fill="none" />
<polyline points="267.0,115.0,265.0,123.0,274.0,120.0,286.0,109.0" stroke="black" stroke-width="1" fill="none" />
<polyline points="286.0,111.0,284.0,119.0" stroke="black" stroke-width="1" fill="none" />
<polyline points="264.0,115.0,261.0,116.0,259.0,125.0,257.0,133.0" stroke="black" stroke-width="1" fill="none" />
<polyline points="260.0,134.0,254.0,128.0,256.0,120.0,260.0,112.0,256.0,117.0" stroke="black" stroke-width="1" fill="none" />
<polyline points="252.0,115.0,251.0,123.0,251.0,131.0,247.0,139.0,244.0,143.0,252.0,139.0" stroke="black" stroke-width="1" fill="none" />
<polyline points="290.0,141.0,283.0,138.0,270.0,142.0,269.0,145.0,265.0,141.0,267.0,133.0,272.0,128.0,274.0,120.0,275.0,112.0,272.0,107.0,272.0,99.0" stroke="black" stroke-width="1" fill="none" />
<polyline points="270.0,98.0,268.0,106.0,265.0,114.0,263.0,122.0,262.0,124.0,262.0,132.0,260.0,140.0,255.0,141.0,257.0,142.0,250.0,145.0,250.0,153.0,250.0,161.0,249.0,169.0,237.0,177.0,234.0,189.0,229.0,199.0,226.0,206.0,224.0,201.0,232.0,198.0" stroke="black" stroke-width="1" fill="none" />
<polyline points="191.0,237.0,183.0,243.0,178.0,236.0,175.0,244.0,167.0,255.0,159.0,254.0,153.0,249.0,145.0,253.0,137.0,258.0,146.0,252.0,157.0,251.0,152.0,250.0,146.0,246.0" stroke="black" stroke-width="1" fill="none" />
<polyline points="144.0,240.0,152.0,240.0,160.0,239.0,168.0,239.0,176.0,238.0" stroke="black" stroke-width="1" fill="none" />
<polyline points="170.0,236.0,162.0,237.0,154.0,237.0,146.0,237.0,138.0,237.0" stroke="black" stroke-width="1" fill="none" />
<polyline points="143.0,235.0,151.0,234.0,159.0,234.0,167.0,234.0,175.0,234.0,183.0,234.0,191.0,234.0,199.0,236.0" stroke="black" stroke-width="1" fill="none" />
<polyline points="193.0,215.0,185.0,210.0,177.0,206.0,169.0,201.0,161.0,197.0,153.0,191.0,145.0,186.0,137.0,180.0,129.0,172.0,121.0,163.0" stroke="black" stroke-width="1" fill="none" />
<polyline points="112.0,159.0,120.0,166.0,128.0,175.0,136.0,182.0,144.0,188.0,152.0,194.0,160.0,199.0,168.0,204.0,176.0,208.0,184.0,213.0,192.0,217.0" stroke="black" stroke-width="1" fill="none" />
<polyline points="188.0,232.0,180.0,232.0,172.0,231.0,164.0,232.0,156.0,232.0,148.0,232.0,140.0,234.0,132.0,236.0,124.0,234.0,116.0,231.0" stroke="black" stroke-width="1" fill="none" />
<polyline points="101.0,223.0,109.0,221.0,117.0,219.0,125.0,218.0,133.0,216.0,141.0,215.0,149.0,215.0,157.0,217.0,165.0,218.0,173.0,221.0,181.0,224.0,181.0,227.0,187.0,223.0" stroke="black" stroke-width="1" fill="none" />
<polyline points="204.0,223.0,201.0,219.0,204.0,216.0,192.0,215.0,178.0,207.0,164.0,199.0,151.0,191.0,140.0,183.0,131.0,175.0,124.0,167.0,118.0,159.0,110.0,151.0" stroke="black" stroke-width="1" fill="none" />
<polyline points="112.0,147.0,112.0,155.0,116.0,160.0,121.0,168.0,129.0,176.0,137.0,184.0,148.0,192.0,161.0,200.0,175.0,208.0,189.0,216.0,196.0,226.0,204.0,223.0" stroke="black" stroke-width="1" fill="none" />
<polyline points="207.0,218.0,199.0,221.0,191.0,219.0,183.0,222.0,175.0,219.0,167.0,216.0,159.0,214.0,151.0,213.0,143.0,213.0,135.0,213.0,127.0,215.0,119.0,216.0,111.0,218.0,103.0,220.0,95.0,224.0" stroke="black" stroke-width="1" fill="none" />
<polyline points="88.0,250.0,80.0,251.0,72.0,248.0,71.0,250.0,63.0,252.0,58.0,262.0,50.0,269.0,46.0,282.0,46.0,282.0,50.0,272.0,57.0,264.0,65.0,251.0" stroke="black" stroke-width="1" fill="none" />
<polyline points="170.0,220.0,185.0,223.0,194.0,232.0,193.0,245.0,193.0,253.0,185.0,261.0,184.0,266.0,187.0,262.0,195.0,256.0,200.0,252.0,204.0,257.0,204.0,259.0,212.0,259.0,216.0,258.0" stroke="black" stroke-width="1" fill="none" />
<polyline points="167.0,173.0,163.0,165.0,157.0,157.0" stroke="black" stroke-width="1" fill="none" />
<polyline points="120.0,155.0,112.0,147.0" stroke="black" stroke-width="1" fill="none" />
<polyline points="214.0,55.0,213.0,47.0" stroke="black" stroke-width="1" fill="none" />
<polyline points="213.0,46.0,210.0,54.0" stroke="black" stroke-width="1" fill="none" />
<polyline points="240.0,32.0,237.0,40.0,234.0,48.0,226.0,56.0,220.0,64.0,217.0,65.0,225.0,57.0,233.0,49.0,245.0,39.0" stroke="black" stroke-width="1" fill="none" />
<polyline points="242.0,33.0,245.0,41.0,246.0,49.0,246.0,57.0,242.0,65.0,244.0,66.0,250.0,73.0" stroke="black" stroke-width="1" fill="none" />
<polyline points="261.0,65.0,262.0,57.0,255.0,50.0" stroke="black" stroke-width="1" fill="none" />
<polyline points="250.0,51.0,258.0,39.0,253.0,44.0,257.0,48.0,255.0,56.0,254.0,64.0,250.0,70.0" stroke="black" stroke-width="1" fill="none" />
<polyline points="275.0,51.0,274.0,43.0,272.0,35.0,270.0,31.0" stroke="black" stroke-width="1" fill="none" />
<polyline points="269.0,37.0,269.0,45.0,268.0,53.0,265.0,61.0" stroke="black" stroke-width="1" fill="none" />
<polyline points="278.0,45.0,279.0,37.0" stroke="black" stroke-width="1" fill="none" />
<polyline points="289.0,27.0,289.0,35.0,283.0,43.0,285.0,48.0,286.0,56.0,291.0,62.0,289.0,70.0,288.0,78.0,293.0,83.0,290.0,91.0,289.0,99.0,286.0,109.0,283.0,117.0,281.0,126.0,282.0,133.0,282.0,141.0,282.0,149.0,283.0,157.0,279.0,159.0,278.0,167.0,286.0,165.0,288.0,173.0,292.0,188.0,302.0,196.0,316.0,201.0,330.0,206.0,328.0,214.0,323.0,214.0,331.0,212.0,339.0,207.0,347.0,203.0,355.0,196.0,363.0,188.0,371.0,171.0,369.0,165.0" stroke="black" stroke-width="1" fill="none" />
<polyline points="372.0,175.0,369.0,183.0,364.0,191.0,356.0,199.0,339.0,210.0,345.0,214.0,353.0,211.0,361.0,208.0,369.0,206.0,377.0,202.0,385.0,197.0,393.0,193.0,401.0,188.0,409.0,182.0,417.0,173.0" stroke="black" stroke-width="1" fill="none" />
<polyline points="418.0,169.0,414.0,177.0,405.0,185.0,392.0,193.0,378.0,201.0,359.0,209.0,338.0,218.0,338.0,226.0,341.0,241.0,341.0,249.0,344.0,249.0,337.0,255.0,336.0,263.0,339.0,271.0,354.0,275.0" stroke="black" stroke-width="1" fill="none" />
<polyline points="334.0,271.0,336.0,269.0,331.0,267.0,334.0,264.0" stroke="black" stroke-width="1" fill="none" />
<polyline points="448.0,234.0,456.0,235.0" stroke="black" stroke-width="1" fill="none" />
<polyline points="461.0,270.0,453.0,271.0" stroke="black" stroke-width="1" fill="none" />
<polyline points="456.0,153.0,445.0,161.0,432.0,168.0,440.0,164.0,448.0,159.0,456.0,153.0" stroke="black" stroke-width="1" fill="none" />
<polyline points="425.0,150.0,417.0,151.0,411.0,159.0,417.0,151.0" stroke="black" stroke-width="1" fill="none" />
<polyline points="433.0,106.0,425.0,99.0,417.0,94.0,409.0,90.0" stroke="black" stroke-width="1" fill="none" />
<polyline points="408.0,88.0,418.0,96.0,428.0,104.0,435.0,110.0" stroke="black" stroke-width="1" fill="none" />
<polyline points="439.0,81.0,435.0,73.0,419.0,65.0,421.0,62.0,413.0,61.0" stroke="black" stroke-width="1" fill="none" />
<polyline points="405.0,61.0,400.0,69.0,389.0,70.0,394.0,71.0,402.0,68.0,410.0,66.0,418.0,69.0,422.0,66.0,430.0,70.0,438.0,75.0" stroke="black" stroke-width="1" fill="none" />
<polyline points="434.0,62.0,429.0,56.0,432.0,48.0,417.0,40.0,420.0,32.0,420.0,25.0,423.0,17.0,427.0,9.0,432.0,1.0,428.0,7.0,420.0,24.0" stroke="black" stroke-width="1" fill="none" />
<polyline points="423.0,27.0,431.0,26.0,439.0,24.0,447.0,18.0,438.0,25.0" stroke="black" stroke-width="1" fill="none" />
<polyline points="433.0,14.0,425.0,18.0" stroke="black" stroke-width="1" fill="none" />
<polyline points="421.0,36.0,429.0,36.0,437.0,39.0" stroke="black" stroke-width="1" fill="none" />
<polyline points="426.0,50.0,418.0,48.0" stroke="black" stroke-width="1" fill="none" />
<polyline points="418.0,40.0,426.0,44.0,434.0,49.0" stroke="black" stroke-width="1" fill="none" />
<polyline points="431.0,32.0,416.0,37.0" stroke="black" stroke-width="1" fill="none" />
<polyline points="410.0,51.0,418.0,51.0,419.0,55.0,419.0,53.0,427.0,54.0,436.0,52.0" stroke="black" stroke-width="1" fill="none" />
<polyline points="443.0,84.0,435.0,77.0,427.0,74.0,422.0,72.0,414.0,73.0,407.0,75.0,405.0,83.0,397.0,90.0,395.0,92.0,401.0,84.0,411.0,84.0,420.0,76.0,414.0,82.0,406.0,88.0" stroke="black" stroke-width="1" fill="none" />
<polyline points="389.0,102.0,383.0,106.0" stroke="black" stroke-width="1" fill="none" />
<polyline points="362.0,114.0,354.0,113.0,346.0,115.0,338.0,116.0,329.0,120.0,321.0,125.0,329.0,117.0,338.0,116.0" stroke="black" stroke-width="1" fill="none" />
<polyline points="321.0,116.0,329.0,101.0,339.0,86.0" stroke="black" stroke-width="1" fill="none" />
<polyline points="342.0,82.0,334.0,89.0,327.0,99.0,320.0,116.0,322.0,108.0,327.0,100.0,333.0,90.0,339.0,82.0,337.0,74.0" stroke="black" stroke-width="1" fill="none" />
<polyline points="346.0,73.0,343.0,81.0,337.0,89.0,331.0,97.0,327.0,105.0,322.0,114.0,323.0,121.0,331.0,116.0,339.0,114.0,347.0,113.0" stroke="black" stroke-width="1" fill="none" />
<polyline points="313.0,110.0,313.0,100.0,314.0,92.0,314.0,84.0" stroke="black" stroke-width="1" fill="none" />
<polyline points="311.0,84.0,311.0,92.0,311.0,100.0,310.0,108.0,309.0,116.0" stroke="black" stroke-width="1" fill="none" />
<polyline points="324.0,83.0,322.0,75.0" stroke="black" stroke-width="1" fill="none" />
<polyline points="352.0,87.0,353.0,79.0,357.0,71.0,363.0,63.0,370.0,55.0" stroke="black" stroke-width="1" fill="none" />
<polyline points="376.0,63.0,384.0,55.0,381.0,59.0,370.0,62.0,361.0,70.0,361.0,70.0,369.0,63.0,377.0,58.0,385.0,52.0" stroke="black" stroke-width="1" fill="none" />
<polyline points="382.0,60.0,375.0,68.0,364.0,74.0,363.0,82.0,369.0,69.0,381.0,63.0,388.0,62.0,396.0,60.0,404.0,58.0,412.0,58.0,420.0,58.0,428.0,59.0,436.0,63.0" stroke="black" stroke-width="1" fill="none" />
<polyline points="383.0,80.0,377.0,88.0,382.0,81.0" stroke="black" stroke-width="1" fill="none" />
<polyline points="359.0,58.0,367.0,49.0" stroke="black" stroke-width="1" fill="none" />
<polyline points="371.0,56.0,367.0,54.0,359.0,62.0,362.0,55.0,369.0,47.0,357.0,51.0" stroke="black" stroke-width="1" fill="none" />
<polyline points="351.0,49.0,355.0,41.0" stroke="black" stroke-width="1" fill="none" />
<polyline points="359.0,39.0,355.0,47.0,353.0,45.0" stroke="black" stroke-width="1" fill="none" />
<polyline points="337.0,28.0,329.0,23.0" stroke="black" stroke-width="1" fill="none" />
<polyline points="330.0,22.0,335.0,30.0" stroke="black" stroke-width="1" fill="none" />
<polyline points="342.0,30.0,336.0,22.0,334.0,14.0,323.0,12.0" stroke="black" stroke-width="1" fill="none" />
<polyline points="339.0,10.0,347.0,13.0" stroke="black" stroke-width="1" fill="none" />
<polyline points="344.0,12.0,353.0,20.0" stroke="black" stroke-width="1" fill="none" />
<polyline points="358.0,11.0,355.0,19.0,358.0,22.0,363.0,24.0,355.0,35.0,352.0,43.0,347.0,51.0,354.0,38.0" stroke="black" stroke-width="1" fill="none" />
<polyline points="342.0,49.0,346.0,41.0,345.0,42.0,342.0,42.0,344.0,34.0,343.0,26.0,343.0,18.0,339.0,10.0,347.0,1.0,342.0,5.0,334.0,7.0,326.0,7.0,318.0,7.0,310.0,10.0,302.0,12.0,294.0,16.0" stroke="black" stroke-width="1" fill="none" />
<polyline points="300.0,49.0,301.0,57.0,297.0,65.0,298.0,64.0" stroke="black" stroke-width="1" fill="none" />
<polyline points="296.0,61.0,298.0,53.0" stroke="black" stroke-width="1" fill="none" />
<polyline points="254.0,31.0,251.0,39.0,251.0,37.0" stroke="black" stroke-width="1" fill="none" />
<polyline points="437.0,2.0,435.0,10.0,439.0,14.0,447.0,16.0" stroke="black" stroke-width="1" fill="none" />
<polyline points="48.0,282.0,64.0,282.0" stroke="black" stroke-width="1" fill="none" />
<polyline points="120.0,226.0,192.0,226.0" stroke="black" stroke-width="1" fill="none" />
<polyline points="192.0,216.0,248.0,160.0" stroke="black" stroke-width="1" fill="none" />
<polyline points="248.0,152.0,168.0,232.0" stroke="black" stroke-width="1" fill="none" />
<polyline points="160.0,232.0,208.0,184.0" stroke="black" stroke-width="1" fill="none" />
<polyline points="200.0,184.0,152.0,232.0" stroke="black" stroke-width="1" fill="none" />
<polyline points="144.0,232.0,192.0,184.0" stroke="black" stroke-width="1" fill="none" />
<polyline points="184.0,184.0,144.0,224.0" stroke="black" stroke-width="1" fill="none" />
<polyline points="144.0,216.0,176.0,184.0" stroke="black" stroke-width="1" fill="none" />
<polyline points="176.0,176.0,136.0,216.0" stroke="black" stroke-width="1" fill="none" />
<polyline points="136.0,208.0,168.0,176.0" stroke="black" stroke-width="1" fill="none" />
<polyline points="168.0,168.0,128.0,208.0" stroke="black" stroke-width="1" fill="none" />
<polyline points="128.0,200.0,264.0,64.0" stroke="black" stroke-width="1" fill="none" />
<polyline points="264.0,72.0,176.0,160.0" stroke="black" stroke-width="1" fill="none" />
<polyline points="184.0,160.0,288.0,56.0" stroke="black" stroke-width="1" fill="none" />
<polyline points="288.0,64.0,192.0,160.0" stroke="black" stroke-width="1" fill="none" />
<polyline points="200.0,160.0,288.0,72.0" stroke="black" stroke-width="1" fill="none" />
<polyline points="296.0,72.0,208.0,160.0" stroke="black" stroke-width="1" fill="none" />
<polyline points="208.0,158.0,248.0,158.0" stroke="black" stroke-width="1" fill="none" />
<polyline points="248.0,168.0,208.0,208.0" stroke="black" stroke-width="1" fill="none" />
<polyline points="200.0,198.0,192.0,198.0" stroke="black" stroke-width="1" fill="none" />
<polyline points="192.0,206.0,184.0,206.0" stroke="black" stroke-width="1" fill="none" />
<polyline points="176.0,214.0,168.0,214.0" stroke="black" stroke-width="1" fill="none" />
<polyline points="168.0,198.0,176.0,198.0" stroke="black" stroke-width="1" fill="none" />
<polyline points="168.0,190.0,152.0,190.0" stroke="black" stroke-width="1" fill="none" />
<polyline points="152.0,198.0,136.0,198.0" stroke="black" stroke-width="1" fill="none" />
<polyline points="136.0,206.0,160.0,206.0" stroke="black" stroke-width="1" fill="none" />
<polyline points="168.0,182.0,136.0,182.0" stroke="black" stroke-width="1" fill="none" />
<polyline points="128.0,174.0,160.0,174.0" stroke="black" stroke-width="1" fill="none" />
<polyline points="184.0,162.0,192.0,162.0" stroke="black" stroke-width="1" fill="none" />
<polyline points="200.0,150.0,248.0,150.0" stroke="black" stroke-width="1" fill="none" />
<polyline points="248.0,144.0,216.0,176.0" stroke="black" stroke-width="1" fill="none" />
<polyline points="216.0,168.0,248.0,136.0" stroke="black" stroke-width="1" fill="none" />
<polyline points="272.0,130.0,448.0,130.0" stroke="black" stroke-width="1" fill="none" />
<polyline points="424.0,136.0,344.0,216.0" stroke="black" stroke-width="1" fill="none" />
<polyline points="344.0,218.0,416.0,218.0" stroke="black" stroke-width="1" fill="none" />
<polyline points="408.0,192.0,376.0,224.0" stroke="black" stroke-width="1" fill="none" />
<polyline points="352.0,216.0,424.0,144.0" stroke="black" stroke-width="1" fill="none" />
<polyline points="416.0,136.0,344.0,208.0" stroke="black" stroke-width="1" fill="none" />
<polyline points="336.0,208.0,408.0,136.0" stroke="black" stroke-width="1" fill="none" />
<polyline points="408.0,128.0,328.0,208.0" stroke="black" stroke-width="1" fill="none" />
<polyline points="328.0,210.0,424.0,210.0" stroke="black" stroke-width="1" fill="none" />
<polyline points="408.0,184.0,368.0,224.0" stroke="black" stroke-width="1" fill="none" />
<polyline points="360.0,224.0,408.0,176.0" stroke="black" stroke-width="1" fill="none" />
<polyline points="408.0,168.0,360.0,216.0" stroke="black" stroke-width="1" fill="none" />
<polyline points="344.0,226.0,392.0,226.0" stroke="black" stroke-width="1" fill="none" />
<polyline points="392.0,190.0,368.0,190.0" stroke="black" stroke-width="1" fill="none" />
<polyline points="376.0,182.0,400.0,182.0" stroke="black" stroke-width="1" fill="none" />
<polyline points="408.0,158.0,376.0,158.0" stroke="black" stroke-width="1" fill="none" />
<polyline points="376.0,150.0,416.0,150.0" stroke="black" stroke-width="1" fill="none" />
<polyline points="400.0,128.0,360.0,168.0" stroke="black" stroke-width="1" fill="none" />
<polyline points="368.0,166.0,400.0,166.0" stroke="black" stroke-width="1" fill="none" />
<polyline points="392.0,142.0,376.0,142.0" stroke="black" stroke-width="1" fill="none" />
<polyline points="368.0,152.0,392.0,128.0" stroke="black" stroke-width="1" fill="none" />
<polyline points="392.0,120.0,368.0,144.0" stroke="black" stroke-width="1" fill="none" />
<polyline points="360.0,144.0,384.0,120.0" stroke="black" stroke-width="1" fill="none" />
<polyline points="376.0,120.0,344.0,152.0" stroke="black" stroke-width="1" fill="none" />
<polyline points="336.0,152.0,368.0,120.0" stroke="black" stroke-width="1" fill="none" />
<polyline points="360.0,120.0,296.0,184.0" stroke="black" stroke-width="1" fill="none" />
<polyline points="296.0,182.0,312.0,182.0" stroke="black" stroke-width="1" fill="none" />
<polyline points="312.0,176.0,304.0,184.0" stroke="black" stroke-width="1" fill="none" />
<polyline points="304.0,190.0,312.0,190.0" stroke="black" stroke-width="1" fill="none" />
<polyline points="312.0,192.0,328.0,176.0" stroke="black" stroke-width="1" fill="none" />
<polyline points="320.0,176.0,304.0,192.0" stroke="black" stroke-width="1" fill="none" />
<polyline points="304.0,194.0,432.0,194.0" stroke="black" stroke-width="1" fill="none" />
<polyline points="400.0,174.0,368.0,174.0" stroke="black" stroke-width="1" fill="none" />
<polyline points="352.0,176.0,320.0,208.0" stroke="black" stroke-width="1" fill="none" />
<polyline points="320.0,200.0,344.0,176.0" stroke="black" stroke-width="1" fill="none" />
<polyline points="336.0,176.0,312.0,200.0" stroke="black" stroke-width="1" fill="none" />
<polyline points="312.0,202.0,424.0,202.0" stroke="black" stroke-width="1" fill="none" />
<polyline points="448.0,154.0,360.0,154.0" stroke="black" stroke-width="1" fill="none" />
<polyline points="352.0,162.0,440.0,162.0" stroke="black" stroke-width="1" fill="none" />
<polyline points="400.0,96.0,408.0,88.0" stroke="black" stroke-width="1" fill="none" />
<polyline points="408.0,74.0,424.0,74.0" stroke="black" stroke-width="1" fill="none" />
<polyline points="400.0,64.0,416.0,48.0" stroke="black" stroke-width="1" fill="none" />
<polyline points="416.0,40.0,392.0,64.0" stroke="black" stroke-width="1" fill="none" />
<polyline points="392.0,66.0,424.0,66.0" stroke="black" stroke-width="1" fill="none" />
<polyline points="408.0,82.0,392.0,82.0" stroke="black" stroke-width="1" fill="none" />
<polyline points="384.0,64.0,424.0,24.0" stroke="black" stroke-width="1" fill="none" />
<polyline points="424.0,16.0,376.0,64.0" stroke="black" stroke-width="1" fill="none" />
<polyline points="376.0,56.0,432.0,0.0" stroke="black" stroke-width="1" fill="none" />
<polyline points="424.0,0.0,368.0,56.0" stroke="black" stroke-width="1" fill="none" />
<polyline points="360.0,56.0,416.0,0.0" stroke="black" stroke-width="1" fill="none" />
<polyline points="408.0,0.0,360.0,48.0" stroke="black" stroke-width="1" fill="none" />
<polyline points="352.0,48.0,400.0,0.0" stroke="black" stroke-width="1" fill="none" />
<polyline points="392.0,0.0,360.0,32.0" stroke="black" stroke-width="1" fill="none" />
<polyline points="360.0,24.0,384.0,0.0" stroke="black" stroke-width="1" fill="none" />
<polyline points="376.0,0.0,352.0,24.0" stroke="black" stroke-width="1" fill="none" />
<polyline points="352.0,16.0,368.0,0.0" stroke="black" stroke-width="1" fill="none" />
<polyline points="360.0,0.0,344.0,16.0" stroke="black" stroke-width="1" fill="none" />
<polyline points="344.0,18.0,440.0,18.0" stroke="black" stroke-width="1" fill="none" />
<polyline points="408.0,54.0,384.0,54.0" stroke="black" stroke-width="1" fill="none" />
<polyline points="368.0,46.0,408.0,46.0" stroke="black" stroke-width="1" fill="none" />
<polyline points="408.0,38.0,368.0,38.0" stroke="black" stroke-width="1" fill="none" />
<polyline points="368.0,30.0,416.0,30.0" stroke="black" stroke-width="1" fill="none" />
<polyline points="416.0,22.0,368.0,22.0" stroke="black" stroke-width="1" fill="none" />
<polyline points="352.0,14.0,424.0,14.0" stroke="black" stroke-width="1" fill="none" />
<polyline points="424.0,6.0,352.0,6.0" stroke="black" stroke-width="1" fill="none" />
<polyline points="352.0,0.0,344.0,8.0" stroke="black" stroke-width="1" fill="none" />
<polyline points="344.0,2.0,432.0,2.0" stroke="black" stroke-width="1" fill="none" />
<polyline points="424.0,26.0,344.0,26.0" stroke="black" stroke-width="1" fill="none" />
<polyline points="320.0,34.0,424.0,34.0" stroke="black" stroke-width="1" fill="none" />
<polyline points="368.0,104.0,296.0,176.0" stroke="black" stroke-width="1" fill="none" />
<polyline points="296.0,174.0,304.0,174.0" stroke="black" stroke-width="1" fill="none" />
<polyline points="296.0,186.0,432.0,186.0" stroke="black" stroke-width="1" fill="none" />
<polyline points="384.0,242.0,352.0,242.0" stroke="black" stroke-width="1" fill="none" />
<polyline points="352.0,234.0,392.0,234.0" stroke="black" stroke-width="1" fill="none" />
<polyline points="368.0,258.0,352.0,258.0" stroke="black" stroke-width="1" fill="none" />
<polyline points="344.0,250.0,360.0,250.0" stroke="black" stroke-width="1" fill="none" />
<polyline points="344.0,198.0,328.0,198.0" stroke="black" stroke-width="1" fill="none" />
<polyline points="288.0,208.0,280.0,216.0" stroke="black" stroke-width="1" fill="none" />
<polyline points="272.0,210.0,296.0,210.0" stroke="black" stroke-width="1" fill="none" />
<polyline points="288.0,178.0,432.0,178.0" stroke="black" stroke-width="1" fill="none" />
<polyline points="352.0,112.0,288.0,176.0" stroke="black" stroke-width="1" fill="none" />
<polyline points="288.0,170.0,432.0,170.0" stroke="black" stroke-width="1" fill="none" />
<polyline points="352.0,104.0,288.0,168.0" stroke="black" stroke-width="1" fill="none" />
<polyline points="288.0,166.0,312.0,166.0" stroke="black" stroke-width="1" fill="none" />
<polyline points="288.0,160.0,352.0,96.0" stroke="black" stroke-width="1" fill="none" />
<polyline points="344.0,96.0,336.0,104.0" stroke="black" stroke-width="1" fill="none" />
<polyline points="328.0,96.0,288.0,136.0" stroke="black" stroke-width="1" fill="none" />
<polyline points="288.0,134.0,328.0,134.0" stroke="black" stroke-width="1" fill="none" />
<polyline points="328.0,112.0,288.0,152.0" stroke="black" stroke-width="1" fill="none" />
<polyline points="288.0,150.0,328.0,150.0" stroke="black" stroke-width="1" fill="none" />
<polyline points="320.0,112.0,288.0,144.0" stroke="black" stroke-width="1" fill="none" />
<polyline points="288.0,142.0,320.0,142.0" stroke="black" stroke-width="1" fill="none" />
<polyline points="320.0,158.0,288.0,158.0" stroke="black" stroke-width="1" fill="none" />
<polyline points="280.0,154.0,352.0,154.0" stroke="black" stroke-width="1" fill="none" />
<polyline points="320.0,126.0,288.0,126.0" stroke="black" stroke-width="1" fill="none" />
<polyline points="288.0,118.0,320.0,118.0" stroke="black" stroke-width="1" fill="none" />
<polyline points="312.0,86.0,296.0,86.0" stroke="black" stroke-width="1" fill="none" />
<polyline points="304.0,78.0,312.0,78.0" stroke="black" stroke-width="1" fill="none" />
<polyline points="328.0,72.0,280.0,120.0" stroke="black" stroke-width="1" fill="none" />
<polyline points="280.0,128.0,336.0,72.0" stroke="black" stroke-width="1" fill="none" />
<polyline points="336.0,80.0,280.0,136.0" stroke="black" stroke-width="1" fill="none" />
<polyline points="280.0,138.0,448.0,138.0" stroke="black" stroke-width="1" fill="none" />
<polyline points="328.0,64.0,272.0,120.0" stroke="black" stroke-width="1" fill="none" />
<polyline points="272.0,112.0,328.0,56.0" stroke="black" stroke-width="1" fill="none" />
<polyline points="320.0,56.0,216.0,160.0" stroke="black" stroke-width="1" fill="none" />
<polyline points="216.0,166.0,248.0,166.0" stroke="black" stroke-width="1" fill="none" />
<polyline points="232.0,182.0,224.0,182.0" stroke="black" stroke-width="1" fill="none" />
<polyline points="224.0,174.0,240.0,174.0" stroke="black" stroke-width="1" fill="none" />
<polyline points="248.0,170.0,208.0,170.0" stroke="black" stroke-width="1" fill="none" />
<polyline points="208.0,162.0,248.0,162.0" stroke="black" stroke-width="1" fill="none" />
<polyline points="280.0,162.0,320.0,162.0" stroke="black" stroke-width="1" fill="none" />
<polyline points="280.0,146.0,448.0,146.0" stroke="black" stroke-width="1" fill="none" />
<polyline points="312.0,56.0,304.0,64.0" stroke="black" stroke-width="1" fill="none" />
<polyline points="296.0,34.0,288.0,34.0" stroke="black" stroke-width="1" fill="none" />
<polyline points="280.0,42.0,424.0,42.0" stroke="black" stroke-width="1" fill="none" />
<polyline points="432.0,10.0,312.0,10.0" stroke="black" stroke-width="1" fill="none" />
<polyline points="272.0,42.0,256.0,42.0" stroke="black" stroke-width="1" fill="none" />
<polyline points="248.0,42.0,232.0,42.0" stroke="black" stroke-width="1" fill="none" />
<polyline points="232.0,64.0,120.0,176.0" stroke="black" stroke-width="1" fill="none" />
<polyline points="120.0,184.0,240.0,64.0" stroke="black" stroke-width="1" fill="none" />
<polyline points="240.0,72.0,200.0,112.0" stroke="black" stroke-width="1" fill="none" />
<polyline points="208.0,118.0,256.0,118.0" stroke="black" stroke-width="1" fill="none" />
<polyline points="280.0,110.0,312.0,110.0" stroke="black" stroke-width="1" fill="none" />
<polyline points="288.0,86.0,248.0,86.0" stroke="black" stroke-width="1" fill="none" />
<polyline points="248.0,72.0,128.0,192.0" stroke="black" stroke-width="1" fill="none" />
<polyline points="120.0,192.0,192.0,120.0" stroke="black" stroke-width="1" fill="none" />
<polyline points="208.0,126.0,248.0,126.0" stroke="black" stroke-width="1" fill="none" />
<polyline points="264.0,110.0,216.0,110.0" stroke="black" stroke-width="1" fill="none" />
<polyline points="216.0,102.0,312.0,102.0" stroke="black" stroke-width="1" fill="none" />
<polyline points="304.0,94.0,224.0,94.0" stroke="black" stroke-width="1" fill="none" />
<polyline points="224.0,86.0,240.0,86.0" stroke="black" stroke-width="1" fill="none" />
<polyline points="240.0,78.0,224.0,78.0" stroke="black" stroke-width="1" fill="none" />
<polyline points="224.0,64.0,176.0,112.0" stroke="black" stroke-width="1" fill="none" />
<polyline points="168.0,112.0,112.0,168.0" stroke="black" stroke-width="1" fill="none" />
<polyline points="112.0,176.0,168.0,120.0" stroke="black" stroke-width="1" fill="none" />
<polyline points="160.0,112.0,120.0,152.0" stroke="black" stroke-width="1" fill="none" />
<polyline points="128.0,166.0,152.0,166.0" stroke="black" stroke-width="1" fill="none" />
<polyline points="152.0,158.0,136.0,158.0" stroke="black" stroke-width="1" fill="none" />
<polyline points="136.0,150.0,152.0,150.0" stroke="black" stroke-width="1" fill="none" />
<polyline points="200.0,142.0,248.0,142.0" stroke="black" stroke-width="1" fill="none" />
<polyline points="248.0,134.0,208.0,134.0" stroke="black" stroke-width="1" fill="none" />
<polyline points="184.0,96.0,216.0,64.0" stroke="black" stroke-width="1" fill="none" />
<polyline points="192.0,58.0,416.0,58.0" stroke="black" stroke-width="1" fill="none" />
<polyline points="280.0,218.0,256.0,218.0" stroke="black" stroke-width="1" fill="none" />
<polyline points="264.0,210.0,240.0,210.0" stroke="black" stroke-width="1" fill="none" />
<polyline points="208.0,266.0,192.0,266.0" stroke="black" stroke-width="1" fill="none" />
<polyline points="184.0,258.0,176.0,258.0" stroke="black" stroke-width="1" fill="none" />
<polyline points="192.0,250.0,152.0,250.0" stroke="black" stroke-width="1" fill="none" />
<polyline points="136.0,242.0,192.0,242.0" stroke="black" stroke-width="1" fill="none" />
<polyline points="192.0,234.0,128.0,234.0" stroke="black" stroke-width="1" fill="none" />
<polyline points="120.0,218.0,200.0,218.0" stroke="black" stroke-width="1" fill="none" />
<polyline points="208.0,210.0,112.0,210.0" stroke="black" stroke-width="1" fill="none" />
<polyline points="112.0,202.0,224.0,202.0" stroke="black" stroke-width="1" fill="none" />
<polyline points="232.0,194.0,104.0,194.0" stroke="black" stroke-width="1" fill="none" />
<polyline points="104.0,186.0,240.0,186.0" stroke="black" stroke-width="1" fill="none" />
<polyline points="184.0,88.0,192.0,80.0" stroke="black" stroke-width="1" fill="none" />
<polyline points="192.0,50.0,424.0,50.0" stroke="black" stroke-width="1" fill="none" />
<polyline points="200.0,18.0,176.0,18.0" stroke="black" stroke-width="1" fill="none" />
<polyline points="168.0,24.0,112.0,80.0" stroke="black" stroke-width="1" fill="none" />
<polyline points="112.0,78.0,120.0,78.0" stroke="black" stroke-width="1" fill="none" />
<polyline points="120.0,80.0,168.0,32.0" stroke="black" stroke-width="1" fill="none" />
<polyline points="160.0,24.0,104.0,80.0" stroke="black" stroke-width="1" fill="none" />
<polyline points="104.0,82.0,144.0,82.0" stroke="black" stroke-width="1" fill="none" />
<polyline points="144.0,98.0,424.0,98.0" stroke="black" stroke-width="1" fill="none" />
<polyline points="416.0,90.0,160.0,90.0" stroke="black" stroke-width="1" fill="none" />
<polyline points="160.0,82.0,376.0,82.0" stroke="black" stroke-width="1" fill="none" />
<polyline points="376.0,74.0,160.0,74.0" stroke="black" stroke-width="1" fill="none" />
<polyline points="160.0,48.0,128.0,80.0" stroke="black" stroke-width="1" fill="none" />
<polyline points="120.0,104.0,112.0,112.0" stroke="black" stroke-width="1" fill="none" />
<polyline points="104.0,106.0,432.0,106.0" stroke="black" stroke-width="1" fill="none" />
<polyline points="160.0,16.0,104.0,72.0" stroke="black" stroke-width="1" fill="none" />
<polyline points="104.0,70.0,136.0,70.0" stroke="black" stroke-width="1" fill="none" />
<polyline points="128.0,98.0,104.0,98.0" stroke="black" stroke-width="1" fill="none" />
<polyline points="96.0,90.0,120.0,90.0" stroke="black" stroke-width="1" fill="none" />
<polyline points="96.0,74.0,144.0,74.0" stroke="black" stroke-width="1" fill="none" />
<polyline points="144.0,62.0,104.0,62.0" stroke="black" stroke-width="1" fill="none" />
<polyline points="96.0,64.0,144.0,16.0" stroke="black" stroke-width="1" fill="none" />
<polyline points="144.0,8.0,96.0,56.0" stroke="black" stroke-width="1" fill="none" />
<polyline points="96.0,54.0,152.0,54.0" stroke="black" stroke-width="1" fill="none" />
<polyline points="152.0,16.0,96.0,72.0" stroke="black" stroke-width="1" fill="none" />
<polyline points="96.0,66.0,384.0,66.0" stroke="black" stroke-width="1" fill="none" />
<polyline points="136.0,8.0,88.0,56.0" stroke="black" stroke-width="1" fill="none" />
<polyline points="88.0,50.0,176.0,50.0" stroke="black" stroke-width="1" fill="none" />
<polyline points="136.0,0.0,88.0,48.0" stroke="black" stroke-width="1" fill="none" />
<polyline points="88.0,46.0,144.0,46.0" stroke="black" stroke-width="1" fill="none" />
<polyline points="128.0,0.0,80.0,48.0" stroke="black" stroke-width="1" fill="none" />
<polyline points="80.0,42.0,184.0,42.0" stroke="black" stroke-width="1" fill="none" />
<polyline points="120.0,0.0,80.0,40.0" stroke="black" stroke-width="1" fill="none" />
<polyline points="80.0,38.0,152.0,38.0" stroke="black" stroke-width="1" fill="none" />
<polyline points="112.0,0.0,80.0,32.0" stroke="black" stroke-width="1" fill="none" />
<polyline points="72.0,32.0,104.0,0.0" stroke="black" stroke-width="1" fill="none" />
<polyline points="96.0,0.0,72.0,24.0" stroke="black" stroke-width="1" fill="none" />
<polyline points="72.0,30.0,160.0,30.0" stroke="black" stroke-width="1" fill="none" />
<polyline points="184.0,58.0,96.0,58.0" stroke="black" stroke-width="1" fill="none" />
<polyline points="72.0,34.0,176.0,34.0" stroke="black" stroke-width="1" fill="none" />
<polyline points="88.0,0.0,64.0,24.0" stroke="black" stroke-width="1" fill="none" />
<polyline points="64.0,22.0,152.0,22.0" stroke="black" stroke-width="1" fill="none" />
<polyline points="80.0,0.0,64.0,16.0" stroke="black" stroke-width="1" fill="none" />
<polyline points="64.0,14.0,144.0,14.0" stroke="black" stroke-width="1" fill="none" />
<polyline points="72.0,0.0,64.0,8.0" stroke="black" stroke-width="1" fill="none" />
<polyline points="64.0,6.0,128.0,6.0" stroke="black" stroke-width="1" fill="none" />
<polyline points="64.0,0.0,56.0,8.0" stroke="black" stroke-width="1" fill="none" />
<polyline points="56.0,10.0,152.0,10.0" stroke="black" stroke-width="1" fill="none" />
<polyline points="192.0,26.0,64.0,26.0" stroke="black" stroke-width="1" fill="none" />
<polyline points="64.0,18.0,168.0,18.0" stroke="black" stroke-width="1" fill="none" />
<polyline points="136.0,2.0,56.0,2.0" stroke="black" stroke-width="1" fill="none" />
<polyline points="96.0,114.0,440.0,114.0" stroke="black" stroke-width="1" fill="none" />
<polyline points="248.0,178.0,96.0,178.0" stroke="black" stroke-width="1" fill="none" />
<polyline points="88.0,170.0,184.0,170.0" stroke="black" stroke-width="1" fill="none" />
<polyline points="176.0,162.0,88.0,162.0" stroke="black" stroke-width="1" fill="none" />
<polyline points="88.0,154.0,248.0,154.0" stroke="black" stroke-width="1" fill="none" />
<polyline points="248.0,146.0,88.0,146.0" stroke="black" stroke-width="1" fill="none" />
<polyline points="88.0,138.0,256.0,138.0" stroke="black" stroke-width="1" fill="none" />
<polyline points="264.0,130.0,88.0,130.0" stroke="black" stroke-width="1" fill="none" />
<polyline points="88.0,122.0,448.0,122.0" stroke="black" stroke-width="1" fill="none" />
</svg>